<?xml version="1.0" standalone="no"?>
<!DOCTYPE svg PUBLIC "-//W3C//DTD SVG 20010904//EN"
 "http://www.w3.org/TR/2001/REC-SVG-20010904/DTD/svg10.dtd">
<svg version="1.0" xmlns="http://www.w3.org/2000/svg"
 width="122.000000pt" height="179.000000pt" viewBox="0 0 122.000000 179.000000"
 preserveAspectRatio="xMidYMid meet">

<g transform="translate(0.000000,179.000000) scale(0.100000,-0.100000)"
fill="#000000" stroke="none">
<path d="M70 1451 l0 -321 110 0 c139 0 173 12 200 72 17 38 20 66 20 243 0
217 -7 259 -46 296 -24 22 -34 24 -155 27 l-129 4 0 -321z m201 230 c23 -19
24 -25 28 -186 5 -254 -3 -283 -79 -287 l-45 -3 -3 248 -2 247 39 0 c23 0 48
-8 62 -19z"/>
<path d="M442 1733 l3 -38 52 -3 53 -3 2 -277 3 -277 53 -3 52 -3 0 280 0 281
55 0 55 0 0 40 0 40 -166 0 -165 0 3 -37z"/>
<path d="M820 1499 c0 -301 3 -318 63 -354 24 -15 50 -20 102 -20 85 0 118 18
146 78 17 38 19 69 19 305 l0 262 -49 0 -50 0 -3 -262 c-3 -294 -6 -308 -62
-308 -65 0 -66 6 -66 303 l0 267 -50 0 -50 0 0 -271z"/>
<path d="M128 876 c-65 -34 -117 -65 -115 -69 1 -5 57 -37 124 -72 l122 -64
103 38 c202 76 265 77 467 9 l130 -44 125 64 c109 55 148 82 118 82 -4 0 -59
27 -122 60 l-115 61 -138 -46 c-191 -64 -244 -64 -431 -1 -75 25 -139 45 -143
45 -4 -1 -61 -29 -125 -63z"/>
<path d="M127 538 c-64 -33 -117 -64 -117 -67 0 -3 56 -35 124 -70 l123 -64
124 44 c116 41 130 44 229 44 99 0 112 -3 228 -44 l123 -44 124 64 c69 35 125
67 125 70 0 3 -56 34 -123 69 l-124 64 -129 -44 c-117 -41 -138 -45 -224 -45
-86 0 -107 4 -217 43 -67 23 -128 42 -135 42 -7 0 -66 -28 -131 -62z"/>
<path d="M140 210 c-63 -33 -118 -64 -123 -69 -5 -5 48 -38 118 -75 l127 -67
61 25 c101 39 155 56 227 68 83 14 162 0 312 -56 l97 -36 126 66 c70 37 123
70 118 74 -4 4 -61 36 -126 70 l-118 62 -82 -30 c-230 -86 -328 -85 -545 3
-34 14 -65 25 -69 25 -5 0 -60 -27 -123 -60z"/>
</g>
</svg>
